<svg width="24" height="24" fill="none" xmlns="http://www.w3.org/2000/svg"><path d="m17.782 9.98.003-.002a1.259 1.259 0 0 0 .188-1.757 1.238 1.238 0 0 0-1.756-.2l-3.129 2.498-.001.001c-.275.221-.671.348-1.092.348-.42 0-.817-.127-1.092-.348h-.001l-3.129-2.5a1.248 1.248 0 0 0-1.751.195l-.006.007a1.27 1.27 0 0 0 .199 1.756l.003.003 3.128 2.498c.752.612 1.717.901 2.654.901.94 0 1.893-.29 2.653-.9l3.129-2.5ZM7 4h10c1.423 0 2.533.356 3.285 1.054.745.692 1.215 1.791 1.215 3.446v7c0 1.655-.47 2.754-1.215 3.446C19.533 19.644 18.423 20 17 20H7c-1.423 0-2.533-.356-3.285-1.054C2.97 18.254 2.5 17.155 2.5 15.5v-7c0-1.655.47-2.754 1.215-3.446C4.467 4.356 5.577 4 7 4Z" fill="#EDEDED" stroke="#EDEDED"/></svg>